# Tiled2Unity generated file. Do not modify by hand.
# Wavefront file for 'testHouseInside_mesh_0001.obj'

# Vertices (Count = 364)
v -576 -384 0
v -592 -384 0
v -592 -368 0
v -576 -368 0
v -560 -384 0
v -576 -384 0
v -576 -368 0
v -560 -368 0
v -544 -384 0
v -560 -384 0
v -560 -368 0
v -544 -368 0
v -528 -384 0
v -544 -384 0
v -544 -368 0
v -528 -368 0
v -512 -384 0
v -528 -384 0
v -528 -368 0
v -512 -368 0
v -496 -384 0
v -512 -384 0
v -512 -368 0
v -496 -368 0
v -480 -384 0
v -496 -384 0
v -496 -368 0
v -480 -368 0
v -464 -384 0
v -480 -384 0
v -480 -368 0
v -464 -368 0
v -448 -384 0
v -464 -384 0
v -464 -368 0
v -448 -368 0
v -432 -384 0
v -448 -384 0
v -448 -368 0
v -432 -368 0
v -576 -400 0
v -592 -400 0
v -592 -384 0
v -576 -384 0
v -560 -400 0
v -576 -400 0
v -576 -384 0
v -560 -384 0
v -544 -400 0
v -560 -400 0
v -560 -384 0
v -544 -384 0
v -528 -400 0
v -544 -400 0
v -544 -384 0
v -528 -384 0
v -512 -400 0
v -528 -400 0
v -528 -384 0
v -512 -384 0
v -496 -400 0
v -512 -400 0
v -512 -384 0
v -496 -384 0
v -480 -400 0
v -496 -400 0
v -496 -384 0
v -480 -384 0
v -464 -400 0
v -480 -400 0
v -480 -384 0
v -464 -384 0
v -448 -400 0
v -464 -400 0
v -464 -384 0
v -448 -384 0
v -432 -400 0
v -448 -400 0
v -448 -384 0
v -432 -384 0
v -576 -416 0
v -592 -416 0
v -592 -400 0
v -576 -400 0
v -560 -416 0
v -576 -416 0
v -576 -400 0
v -560 -400 0
v -544 -416 0
v -560 -416 0
v -560 -400 0
v -544 -400 0
v -528 -416 0
v -544 -416 0
v -544 -400 0
v -528 -400 0
v -512 -416 0
v -528 -416 0
v -528 -400 0
v -512 -400 0
v -496 -416 0
v -512 -416 0
v -512 -400 0
v -496 -400 0
v -480 -416 0
v -496 -416 0
v -496 -400 0
v -480 -400 0
v -464 -416 0
v -480 -416 0
v -480 -400 0
v -464 -400 0
v -448 -416 0
v -464 -416 0
v -464 -400 0
v -448 -400 0
v -432 -416 0
v -448 -416 0
v -448 -400 0
v -432 -400 0
v -576 -432 0
v -592 -432 0
v -592 -416 0
v -576 -416 0
v -560 -432 0
v -576 -432 0
v -576 -416 0
v -560 -416 0
v -544 -432 0
v -560 -432 0
v -560 -416 0
v -544 -416 0
v -528 -432 0
v -544 -432 0
v -544 -416 0
v -528 -416 0
v -512 -432 0
v -528 -432 0
v -528 -416 0
v -512 -416 0
v -496 -432 0
v -512 -432 0
v -512 -416 0
v -496 -416 0
v -480 -432 0
v -496 -432 0
v -496 -416 0
v -480 -416 0
v -464 -432 0
v -480 -432 0
v -480 -416 0
v -464 -416 0
v -448 -432 0
v -464 -432 0
v -464 -416 0
v -448 -416 0
v -432 -432 0
v -448 -432 0
v -448 -416 0
v -432 -416 0
v -576 -448 0
v -592 -448 0
v -592 -432 0
v -576 -432 0
v -560 -448 0
v -576 -448 0
v -576 -432 0
v -560 -432 0
v -544 -448 0
v -560 -448 0
v -560 -432 0
v -544 -432 0
v -528 -448 0
v -544 -448 0
v -544 -432 0
v -528 -432 0
v -512 -448 0
v -528 -448 0
v -528 -432 0
v -512 -432 0
v -496 -448 0
v -512 -448 0
v -512 -432 0
v -496 -432 0
v -480 -448 0
v -496 -448 0
v -496 -432 0
v -480 -432 0
v -464 -448 0
v -480 -448 0
v -480 -432 0
v -464 -432 0
v -448 -448 0
v -464 -448 0
v -464 -432 0
v -448 -432 0
v -432 -448 0
v -448 -448 0
v -448 -432 0
v -432 -432 0
v -576 -464 0
v -592 -464 0
v -592 -448 0
v -576 -448 0
v -560 -464 0
v -576 -464 0
v -576 -448 0
v -560 -448 0
v -544 -464 0
v -560 -464 0
v -560 -448 0
v -544 -448 0
v -528 -464 0
v -544 -464 0
v -544 -448 0
v -528 -448 0
v -512 -464 0
v -528 -464 0
v -528 -448 0
v -512 -448 0
v -496 -464 0
v -512 -464 0
v -512 -448 0
v -496 -448 0
v -480 -464 0
v -496 -464 0
v -496 -448 0
v -480 -448 0
v -464 -464 0
v -480 -464 0
v -480 -448 0
v -464 -448 0
v -448 -464 0
v -464 -464 0
v -464 -448 0
v -448 -448 0
v -432 -464 0
v -448 -464 0
v -448 -448 0
v -432 -448 0
v -576 -480 0
v -592 -480 0
v -592 -464 0
v -576 -464 0
v -560 -480 0
v -576 -480 0
v -576 -464 0
v -560 -464 0
v -544 -480 0
v -560 -480 0
v -560 -464 0
v -544 -464 0
v -528 -480 0
v -544 -480 0
v -544 -464 0
v -528 -464 0
v -512 -480 0
v -528 -480 0
v -528 -464 0
v -512 -464 0
v -496 -480 0
v -512 -480 0
v -512 -464 0
v -496 -464 0
v -480 -480 0
v -496 -480 0
v -496 -464 0
v -480 -464 0
v -464 -480 0
v -480 -480 0
v -480 -464 0
v -464 -464 0
v -448 -480 0
v -464 -480 0
v -464 -464 0
v -448 -464 0
v -432 -480 0
v -448 -480 0
v -448 -464 0
v -432 -464 0
v -576 -496 0
v -592 -496 0
v -592 -480 0
v -576 -480 0
v -560 -496 0
v -576 -496 0
v -576 -480 0
v -560 -480 0
v -544 -496 0
v -560 -496 0
v -560 -480 0
v -544 -480 0
v -528 -496 0
v -544 -496 0
v -544 -480 0
v -528 -480 0
v -512 -496 0
v -528 -496 0
v -528 -480 0
v -512 -480 0
v -496 -496 0
v -512 -496 0
v -512 -480 0
v -496 -480 0
v -480 -496 0
v -496 -496 0
v -496 -480 0
v -480 -480 0
v -464 -496 0
v -480 -496 0
v -480 -480 0
v -464 -480 0
v -448 -496 0
v -464 -496 0
v -464 -480 0
v -448 -480 0
v -432 -496 0
v -448 -496 0
v -448 -480 0
v -432 -480 0
v -576 -512 0
v -592 -512 0
v -592 -496 0
v -576 -496 0
v -560 -512 0
v -576 -512 0
v -576 -496 0
v -560 -496 0
v -544 -512 0
v -560 -512 0
v -560 -496 0
v -544 -496 0
v -528 -512 0
v -544 -512 0
v -544 -496 0
v -528 -496 0
v -512 -512 0
v -528 -512 0
v -528 -496 0
v -512 -496 0
v -496 -512 0
v -512 -512 0
v -512 -496 0
v -496 -496 0
v -480 -512 0
v -496 -512 0
v -496 -496 0
v -480 -496 0
v -464 -512 0
v -480 -512 0
v -480 -496 0
v -464 -496 0
v -448 -512 0
v -464 -512 0
v -464 -496 0
v -448 -496 0
v -432 -512 0
v -448 -512 0
v -448 -496 0
v -432 -496 0
v -512 -528 0
v -528 -528 0
v -528 -512 0
v -512 -512 0

# Texture cooridinates (Count = 36)
vt 0.2985537 0.5817491
vt 0.3150826 0.5817491
vt 0.3150826 0.6121673
vt 0.2985537 0.6121673
vt 0.2458678 0.5817491
vt 0.2623967 0.5817491
vt 0.2623967 0.6121673
vt 0.2458678 0.6121673
vt 0.2809917 0.5817491
vt 0.2975207 0.5817491
vt 0.2975207 0.6121673
vt 0.2809917 0.6121673
vt 0.2634298 0.5494297
vt 0.2799587 0.5494297
vt 0.2799587 0.5798479
vt 0.2634298 0.5798479
vt 0.3161157 0.4847909
vt 0.3326446 0.4847909
vt 0.3326446 0.5152091
vt 0.3161157 0.5152091
vt 0.1404959 0.8726236
vt 0.1570248 0.8726236
vt 0.1570248 0.9030418
vt 0.1404959 0.9030418
vt 0.2283058 0.5171102
vt 0.2448347 0.5171102
vt 0.2448347 0.5475285
vt 0.2283058 0.5475285
vt 0.3161157 0.2585551
vt 0.3326446 0.2585551
vt 0.3326446 0.2889734
vt 0.3161157 0.2889734
vt 0.1404959 0.8079848
vt 0.1570248 0.8079848
vt 0.1570248 0.838403
vt 0.1404959 0.838403

# Normal
vn 0 0 -1

# Mesh description
g testHouseInside_mesh_0001

# Faces
f 1/1/1 2/2/1 3/3/1 4/4/1
f 5/5/1 6/6/1 7/7/1 8/8/1
f 9/5/1 10/6/1 11/7/1 12/8/1
f 13/5/1 14/6/1 15/7/1 16/8/1
f 17/5/1 18/6/1 19/7/1 20/8/1
f 21/5/1 22/6/1 23/7/1 24/8/1
f 25/5/1 26/6/1 27/7/1 28/8/1
f 29/5/1 30/6/1 31/7/1 32/8/1
f 33/5/1 34/6/1 35/7/1 36/8/1
f 37/9/1 38/10/1 39/11/1 40/12/1
f 41/13/1 42/14/1 43/15/1 44/16/1
f 45/17/1 46/18/1 47/19/1 48/20/1
f 49/17/1 50/18/1 51/19/1 52/20/1
f 53/17/1 54/18/1 55/19/1 56/20/1
f 57/17/1 58/18/1 59/19/1 60/20/1
f 61/17/1 62/18/1 63/19/1 64/20/1
f 65/17/1 66/18/1 67/19/1 68/20/1
f 69/17/1 70/18/1 71/19/1 72/20/1
f 73/17/1 74/18/1 75/19/1 76/20/1
f 77/13/1 78/14/1 79/15/1 80/16/1
f 81/13/1 82/14/1 83/15/1 84/16/1
f 85/17/1 86/18/1 87/19/1 88/20/1
f 89/17/1 90/18/1 91/19/1 92/20/1
f 93/17/1 94/18/1 95/19/1 96/20/1
f 97/17/1 98/18/1 99/19/1 100/20/1
f 101/17/1 102/18/1 103/19/1 104/20/1
f 105/17/1 106/18/1 107/19/1 108/20/1
f 109/17/1 110/18/1 111/19/1 112/20/1
f 113/17/1 114/18/1 115/19/1 116/20/1
f 117/13/1 118/14/1 119/15/1 120/16/1
f 121/13/1 122/14/1 123/15/1 124/16/1
f 125/17/1 126/18/1 127/19/1 128/20/1
f 129/17/1 130/18/1 131/19/1 132/20/1
f 133/17/1 134/18/1 135/19/1 136/20/1
f 137/17/1 138/18/1 139/19/1 140/20/1
f 141/17/1 142/18/1 143/19/1 144/20/1
f 145/17/1 146/18/1 147/19/1 148/20/1
f 149/17/1 150/18/1 151/19/1 152/20/1
f 153/17/1 154/18/1 155/19/1 156/20/1
f 157/13/1 158/14/1 159/15/1 160/16/1
f 161/13/1 162/14/1 163/15/1 164/16/1
f 165/21/1 166/22/1 167/23/1 168/24/1
f 169/21/1 170/22/1 171/23/1 172/24/1
f 173/21/1 174/22/1 175/23/1 176/24/1
f 177/21/1 178/22/1 179/23/1 180/24/1
f 181/21/1 182/22/1 183/23/1 184/24/1
f 185/21/1 186/22/1 187/23/1 188/24/1
f 189/21/1 190/22/1 191/23/1 192/24/1
f 193/21/1 194/22/1 195/23/1 196/24/1
f 197/13/1 198/14/1 199/15/1 200/16/1
f 201/25/1 202/26/1 203/27/1 204/28/1
f 205/21/1 206/22/1 207/23/1 208/24/1
f 209/21/1 210/22/1 211/23/1 212/24/1
f 213/21/1 214/22/1 215/23/1 216/24/1
f 217/21/1 218/22/1 219/23/1 220/24/1
f 221/21/1 222/22/1 223/23/1 224/24/1
f 225/21/1 226/22/1 227/23/1 228/24/1
f 229/21/1 230/22/1 231/23/1 232/24/1
f 233/21/1 234/22/1 235/23/1 236/24/1
f 237/25/1 238/26/1 239/27/1 240/28/1
f 241/29/1 242/30/1 243/31/1 244/32/1
f 245/21/1 246/22/1 247/23/1 248/24/1
f 249/21/1 250/22/1 251/23/1 252/24/1
f 253/21/1 254/22/1 255/23/1 256/24/1
f 257/21/1 258/22/1 259/23/1 260/24/1
f 261/21/1 262/22/1 263/23/1 264/24/1
f 265/21/1 266/22/1 267/23/1 268/24/1
f 269/21/1 270/22/1 271/23/1 272/24/1
f 273/21/1 274/22/1 275/23/1 276/24/1
f 277/29/1 278/30/1 279/31/1 280/32/1
f 281/29/1 282/30/1 283/31/1 284/32/1
f 285/21/1 286/22/1 287/23/1 288/24/1
f 289/21/1 290/22/1 291/23/1 292/24/1
f 293/21/1 294/22/1 295/23/1 296/24/1
f 297/21/1 298/22/1 299/23/1 300/24/1
f 301/21/1 302/22/1 303/23/1 304/24/1
f 305/21/1 306/22/1 307/23/1 308/24/1
f 309/21/1 310/22/1 311/23/1 312/24/1
f 313/21/1 314/22/1 315/23/1 316/24/1
f 317/29/1 318/30/1 319/31/1 320/32/1
f 321/29/1 322/30/1 323/31/1 324/32/1
f 325/21/1 326/22/1 327/23/1 328/24/1
f 329/21/1 330/22/1 331/23/1 332/24/1
f 333/21/1 334/22/1 335/23/1 336/24/1
f 337/21/1 338/22/1 339/23/1 340/24/1
f 341/21/1 342/22/1 343/23/1 344/24/1
f 345/21/1 346/22/1 347/23/1 348/24/1
f 349/21/1 350/22/1 351/23/1 352/24/1
f 353/21/1 354/22/1 355/23/1 356/24/1
f 357/29/1 358/30/1 359/31/1 360/32/1
f 361/33/1 362/34/1 363/35/1 364/36/1

