# Tiled2Unity generated file. Do not modify by hand.
# Wavefront file for 'test_area_mesh_0002.obj'

# Vertices (Count = 348)
v -1152 -336 0
v -1168 -336 0
v -1168 -320 0
v -1152 -320 0
v -1136 -336 0
v -1152 -336 0
v -1152 -320 0
v -1136 -320 0
v -1120 -336 0
v -1136 -336 0
v -1136 -320 0
v -1120 -320 0
v -1104 -336 0
v -1120 -336 0
v -1120 -320 0
v -1104 -320 0
v -1088 -336 0
v -1104 -336 0
v -1104 -320 0
v -1088 -320 0
v -1072 -336 0
v -1088 -336 0
v -1088 -320 0
v -1072 -320 0
v -1056 -336 0
v -1072 -336 0
v -1072 -320 0
v -1056 -320 0
v -1040 -336 0
v -1056 -336 0
v -1056 -320 0
v -1040 -320 0
v -1152 -352 0
v -1168 -352 0
v -1168 -336 0
v -1152 -336 0
v -1136 -352 0
v -1152 -352 0
v -1152 -336 0
v -1136 -336 0
v -1120 -352 0
v -1136 -352 0
v -1136 -336 0
v -1120 -336 0
v -1104 -352 0
v -1120 -352 0
v -1120 -336 0
v -1104 -336 0
v -1088 -352 0
v -1104 -352 0
v -1104 -336 0
v -1088 -336 0
v -1072 -352 0
v -1088 -352 0
v -1088 -336 0
v -1072 -336 0
v -1056 -352 0
v -1072 -352 0
v -1072 -336 0
v -1056 -336 0
v -1040 -352 0
v -1056 -352 0
v -1056 -336 0
v -1040 -336 0
v -1152 -368 0
v -1168 -368 0
v -1168 -352 0
v -1152 -352 0
v -1136 -368 0
v -1152 -368 0
v -1152 -352 0
v -1136 -352 0
v -1120 -368 0
v -1136 -368 0
v -1136 -352 0
v -1120 -352 0
v -1104 -368 0
v -1120 -368 0
v -1120 -352 0
v -1104 -352 0
v -1088 -368 0
v -1104 -368 0
v -1104 -352 0
v -1088 -352 0
v -1072 -368 0
v -1088 -368 0
v -1088 -352 0
v -1072 -352 0
v -1056 -368 0
v -1072 -368 0
v -1072 -352 0
v -1056 -352 0
v -1040 -368 0
v -1056 -368 0
v -1056 -352 0
v -1040 -352 0
v -1152 -384 0
v -1168 -384 0
v -1168 -368 0
v -1152 -368 0
v -1136 -384 0
v -1152 -384 0
v -1152 -368 0
v -1136 -368 0
v -1120 -384 0
v -1136 -384 0
v -1136 -368 0
v -1120 -368 0
v -1104 -384 0
v -1120 -384 0
v -1120 -368 0
v -1104 -368 0
v -1088 -384 0
v -1104 -384 0
v -1104 -368 0
v -1088 -368 0
v -1072 -384 0
v -1088 -384 0
v -1088 -368 0
v -1072 -368 0
v -1056 -384 0
v -1072 -384 0
v -1072 -368 0
v -1056 -368 0
v -1040 -384 0
v -1056 -384 0
v -1056 -368 0
v -1040 -368 0
v -1152 -400 0
v -1168 -400 0
v -1168 -384 0
v -1152 -384 0
v -1136 -400 0
v -1152 -400 0
v -1152 -384 0
v -1136 -384 0
v -1120 -400 0
v -1136 -400 0
v -1136 -384 0
v -1120 -384 0
v -1104 -400 0
v -1120 -400 0
v -1120 -384 0
v -1104 -384 0
v -1088 -400 0
v -1104 -400 0
v -1104 -384 0
v -1088 -384 0
v -1072 -400 0
v -1088 -400 0
v -1088 -384 0
v -1072 -384 0
v -1056 -400 0
v -1072 -400 0
v -1072 -384 0
v -1056 -384 0
v -1040 -400 0
v -1056 -400 0
v -1056 -384 0
v -1040 -384 0
v -1152 -416 0
v -1168 -416 0
v -1168 -400 0
v -1152 -400 0
v -1136 -416 0
v -1152 -416 0
v -1152 -400 0
v -1136 -400 0
v -1120 -416 0
v -1136 -416 0
v -1136 -400 0
v -1120 -400 0
v -1104 -416 0
v -1120 -416 0
v -1120 -400 0
v -1104 -400 0
v -1088 -416 0
v -1104 -416 0
v -1104 -400 0
v -1088 -400 0
v -1072 -416 0
v -1088 -416 0
v -1088 -400 0
v -1072 -400 0
v -1056 -416 0
v -1072 -416 0
v -1072 -400 0
v -1056 -400 0
v -1040 -416 0
v -1056 -416 0
v -1056 -400 0
v -1040 -400 0
v -1152 -432 0
v -1168 -432 0
v -1168 -416 0
v -1152 -416 0
v -1136 -432 0
v -1152 -432 0
v -1152 -416 0
v -1136 -416 0
v -1120 -432 0
v -1136 -432 0
v -1136 -416 0
v -1120 -416 0
v -1104 -432 0
v -1120 -432 0
v -1120 -416 0
v -1104 -416 0
v -1088 -432 0
v -1104 -432 0
v -1104 -416 0
v -1088 -416 0
v -1072 -432 0
v -1088 -432 0
v -1088 -416 0
v -1072 -416 0
v -1056 -432 0
v -1072 -432 0
v -1072 -416 0
v -1056 -416 0
v -1040 -432 0
v -1056 -432 0
v -1056 -416 0
v -1040 -416 0
v -1152 -448 0
v -1168 -448 0
v -1168 -432 0
v -1152 -432 0
v -1136 -448 0
v -1152 -448 0
v -1152 -432 0
v -1136 -432 0
v -1120 -448 0
v -1136 -448 0
v -1136 -432 0
v -1120 -432 0
v -1104 -448 0
v -1120 -448 0
v -1120 -432 0
v -1104 -432 0
v -1088 -448 0
v -1104 -448 0
v -1104 -432 0
v -1088 -432 0
v -1072 -448 0
v -1088 -448 0
v -1088 -432 0
v -1072 -432 0
v -1056 -448 0
v -1072 -448 0
v -1072 -432 0
v -1056 -432 0
v -1040 -448 0
v -1056 -448 0
v -1056 -432 0
v -1040 -432 0
v -1152 -464 0
v -1168 -464 0
v -1168 -448 0
v -1152 -448 0
v -1136 -464 0
v -1152 -464 0
v -1152 -448 0
v -1136 -448 0
v -1120 -464 0
v -1136 -464 0
v -1136 -448 0
v -1120 -448 0
v -1104 -464 0
v -1120 -464 0
v -1120 -448 0
v -1104 -448 0
v -1088 -464 0
v -1104 -464 0
v -1104 -448 0
v -1088 -448 0
v -1072 -464 0
v -1088 -464 0
v -1088 -448 0
v -1072 -448 0
v -1056 -464 0
v -1072 -464 0
v -1072 -448 0
v -1056 -448 0
v -1040 -464 0
v -1056 -464 0
v -1056 -448 0
v -1040 -448 0
v -1152 -480 0
v -1168 -480 0
v -1168 -464 0
v -1152 -464 0
v -1136 -480 0
v -1152 -480 0
v -1152 -464 0
v -1136 -464 0
v -1120 -480 0
v -1136 -480 0
v -1136 -464 0
v -1120 -464 0
v -1104 -480 0
v -1120 -480 0
v -1120 -464 0
v -1104 -464 0
v -1088 -480 0
v -1104 -480 0
v -1104 -464 0
v -1088 -464 0
v -1072 -480 0
v -1088 -480 0
v -1088 -464 0
v -1072 -464 0
v -1056 -480 0
v -1072 -480 0
v -1072 -464 0
v -1056 -464 0
v -1040 -480 0
v -1056 -480 0
v -1056 -464 0
v -1040 -464 0
v -1152 -496 0
v -1168 -496 0
v -1168 -480 0
v -1152 -480 0
v -1136 -496 0
v -1152 -496 0
v -1152 -480 0
v -1136 -480 0
v -1120 -496 0
v -1136 -496 0
v -1136 -480 0
v -1120 -480 0
v -1104 -496 0
v -1120 -496 0
v -1120 -480 0
v -1104 -480 0
v -1088 -496 0
v -1104 -496 0
v -1104 -480 0
v -1088 -480 0
v -1072 -496 0
v -1088 -496 0
v -1088 -480 0
v -1072 -480 0
v -1056 -496 0
v -1072 -496 0
v -1072 -480 0
v -1056 -480 0

# Texture cooridinates (Count = 40)
vt 0.1580579 0.6787072
vt 0.1745868 0.6787072
vt 0.1745868 0.7091255
vt 0.1580579 0.7091255
vt 0.1404959 0.6787072
vt 0.1570248 0.6787072
vt 0.1570248 0.7091255
vt 0.1404959 0.7091255
vt 0.1229339 0.6787072
vt 0.1394628 0.6787072
vt 0.1394628 0.7091255
vt 0.1229339 0.7091255
vt 0.1580579 0.6463878
vt 0.1745868 0.6463878
vt 0.1745868 0.6768061
vt 0.1580579 0.6768061
vt 0.1404959 0.6463878
vt 0.1570248 0.6463878
vt 0.1570248 0.6768061
vt 0.1404959 0.6768061
vt 0.1229339 0.6463878
vt 0.1394628 0.6463878
vt 0.1394628 0.6768061
vt 0.1229339 0.6768061
vt 0.1053719 0.6787072
vt 0.1219008 0.6787072
vt 0.1219008 0.7091255
vt 0.1053719 0.7091255
vt 0.1229339 0.6140684
vt 0.1394628 0.6140684
vt 0.1394628 0.6444867
vt 0.1229339 0.6444867
vt 0.1580579 0.6140684
vt 0.1745868 0.6140684
vt 0.1745868 0.6444867
vt 0.1580579 0.6444867
vt 0.1404959 0.6140684
vt 0.1570248 0.6140684
vt 0.1570248 0.6444867
vt 0.1404959 0.6444867

# Normal
vn 0 0 -1

# Mesh description
g test_area_mesh_0002

# Faces
f 1/1/1 2/2/1 3/3/1 4/4/1
f 5/5/1 6/6/1 7/7/1 8/8/1
f 9/5/1 10/6/1 11/7/1 12/8/1
f 13/5/1 14/6/1 15/7/1 16/8/1
f 17/5/1 18/6/1 19/7/1 20/8/1
f 21/5/1 22/6/1 23/7/1 24/8/1
f 25/5/1 26/6/1 27/7/1 28/8/1
f 29/9/1 30/10/1 31/11/1 32/12/1
f 33/13/1 34/14/1 35/15/1 36/16/1
f 37/17/1 38/18/1 39/19/1 40/20/1
f 41/17/1 42/18/1 43/19/1 44/20/1
f 45/17/1 46/18/1 47/19/1 48/20/1
f 49/17/1 50/18/1 51/19/1 52/20/1
f 53/17/1 54/18/1 55/19/1 56/20/1
f 57/17/1 58/18/1 59/19/1 60/20/1
f 61/21/1 62/22/1 63/23/1 64/24/1
f 65/13/1 66/14/1 67/15/1 68/16/1
f 69/17/1 70/18/1 71/19/1 72/20/1
f 73/17/1 74/18/1 75/19/1 76/20/1
f 77/17/1 78/18/1 79/19/1 80/20/1
f 81/17/1 82/18/1 83/19/1 84/20/1
f 85/17/1 86/18/1 87/19/1 88/20/1
f 89/17/1 90/18/1 91/19/1 92/20/1
f 93/21/1 94/22/1 95/23/1 96/24/1
f 97/13/1 98/14/1 99/15/1 100/16/1
f 101/17/1 102/18/1 103/19/1 104/20/1
f 105/17/1 106/18/1 107/19/1 108/20/1
f 109/17/1 110/18/1 111/19/1 112/20/1
f 113/17/1 114/18/1 115/19/1 116/20/1
f 117/17/1 118/18/1 119/19/1 120/20/1
f 121/17/1 122/18/1 123/19/1 124/20/1
f 125/21/1 126/22/1 127/23/1 128/24/1
f 129/13/1 130/14/1 131/15/1 132/16/1
f 133/17/1 134/18/1 135/19/1 136/20/1
f 137/17/1 138/18/1 139/19/1 140/20/1
f 141/17/1 142/18/1 143/19/1 144/20/1
f 145/17/1 146/18/1 147/19/1 148/20/1
f 149/17/1 150/18/1 151/19/1 152/20/1
f 153/17/1 154/18/1 155/19/1 156/20/1
f 157/21/1 158/22/1 159/23/1 160/24/1
f 161/13/1 162/14/1 163/15/1 164/16/1
f 165/17/1 166/18/1 167/19/1 168/20/1
f 169/17/1 170/18/1 171/19/1 172/20/1
f 173/17/1 174/18/1 175/19/1 176/20/1
f 177/17/1 178/18/1 179/19/1 180/20/1
f 181/17/1 182/18/1 183/19/1 184/20/1
f 185/17/1 186/18/1 187/19/1 188/20/1
f 189/21/1 190/22/1 191/23/1 192/24/1
f 193/13/1 194/14/1 195/15/1 196/16/1
f 197/17/1 198/18/1 199/19/1 200/20/1
f 201/17/1 202/18/1 203/19/1 204/20/1
f 205/17/1 206/18/1 207/19/1 208/20/1
f 209/17/1 210/18/1 211/19/1 212/20/1
f 213/17/1 214/18/1 215/19/1 216/20/1
f 217/17/1 218/18/1 219/19/1 220/20/1
f 221/21/1 222/22/1 223/23/1 224/24/1
f 225/13/1 226/14/1 227/15/1 228/16/1
f 229/17/1 230/18/1 231/19/1 232/20/1
f 233/17/1 234/18/1 235/19/1 236/20/1
f 237/17/1 238/18/1 239/19/1 240/20/1
f 241/17/1 242/18/1 243/19/1 244/20/1
f 245/17/1 246/18/1 247/19/1 248/20/1
f 249/17/1 250/18/1 251/19/1 252/20/1
f 253/21/1 254/22/1 255/23/1 256/24/1
f 257/13/1 258/14/1 259/15/1 260/16/1
f 261/17/1 262/18/1 263/19/1 264/20/1
f 265/17/1 266/18/1 267/19/1 268/20/1
f 269/17/1 270/18/1 271/19/1 272/20/1
f 273/17/1 274/18/1 275/19/1 276/20/1
f 277/17/1 278/18/1 279/19/1 280/20/1
f 281/17/1 282/18/1 283/19/1 284/20/1
f 285/21/1 286/22/1 287/23/1 288/24/1
f 289/13/1 290/14/1 291/15/1 292/16/1
f 293/17/1 294/18/1 295/19/1 296/20/1
f 297/17/1 298/18/1 299/19/1 300/20/1
f 301/17/1 302/18/1 303/19/1 304/20/1
f 305/17/1 306/18/1 307/19/1 308/20/1
f 309/17/1 310/18/1 311/19/1 312/20/1
f 313/25/1 314/26/1 315/27/1 316/28/1
f 317/29/1 318/30/1 319/31/1 320/32/1
f 321/33/1 322/34/1 323/35/1 324/36/1
f 325/37/1 326/38/1 327/39/1 328/40/1
f 329/37/1 330/38/1 331/39/1 332/40/1
f 333/37/1 334/38/1 335/39/1 336/40/1
f 337/37/1 338/38/1 339/39/1 340/40/1
f 341/37/1 342/38/1 343/39/1 344/40/1
f 345/29/1 346/30/1 347/31/1 348/32/1

