# Tiled2Unity generated file. Do not modify by hand.
# Wavefront file for 'Level-1_mesh_0004.obj'

# Vertices (Count = 116)
v -352 -128 0
v -368 -128 0
v -368 -112 0
v -352 -112 0
v -272 -144 0
v -288 -144 0
v -288 -128 0
v -272 -128 0
v -176 -144 0
v -192 -144 0
v -192 -128 0
v -176 -128 0
v -320 -160 0
v -336 -160 0
v -336 -144 0
v -320 -144 0
v -208 -160 0
v -224 -160 0
v -224 -144 0
v -208 -144 0
v -720 -176 0
v -736 -176 0
v -736 -160 0
v -720 -160 0
v -704 -176 0
v -720 -176 0
v -720 -160 0
v -704 -160 0
v -688 -176 0
v -704 -176 0
v -704 -160 0
v -688 -160 0
v -672 -176 0
v -688 -176 0
v -688 -160 0
v -672 -160 0
v -240 -176 0
v -256 -176 0
v -256 -160 0
v -240 -160 0
v -272 -192 0
v -288 -192 0
v -288 -176 0
v -272 -176 0
v -208 -192 0
v -224 -192 0
v -224 -176 0
v -208 -176 0
v -304 -208 0
v -320 -208 0
v -320 -192 0
v -304 -192 0
v -960 -224 0
v -976 -224 0
v -976 -208 0
v -960 -208 0
v -960 -240 0
v -976 -240 0
v -976 -224 0
v -960 -224 0
v -704 -240 0
v -720 -240 0
v -720 -224 0
v -704 -224 0
v -688 -240 0
v -704 -240 0
v -704 -224 0
v -688 -224 0
v -256 -240 0
v -272 -240 0
v -272 -224 0
v -256 -224 0
v -960 -256 0
v -976 -256 0
v -976 -240 0
v -960 -240 0
v -608 -256 0
v -624 -256 0
v -624 -240 0
v -608 -240 0
v -592 -256 0
v -608 -256 0
v -608 -240 0
v -592 -240 0
v -336 -256 0
v -352 -256 0
v -352 -240 0
v -336 -240 0
v -960 -272 0
v -976 -272 0
v -976 -256 0
v -960 -256 0
v -288 -272 0
v -304 -272 0
v -304 -256 0
v -288 -256 0
v -240 -272 0
v -256 -272 0
v -256 -256 0
v -240 -256 0
v -944 -288 0
v -960 -288 0
v -960 -272 0
v -944 -272 0
v -304 -288 0
v -320 -288 0
v -320 -272 0
v -304 -272 0
v -288 -288 0
v -304 -288 0
v -304 -272 0
v -288 -272 0
v -288 -304 0
v -304 -304 0
v -304 -288 0
v -288 -288 0

# Texture cooridinates (Count = 16)
vt 0.4566116 0.6140684
vt 0.4731405 0.6140684
vt 0.4731405 0.6444867
vt 0.4566116 0.6444867
vt 0.4917355 0.6463878
vt 0.5082645 0.6463878
vt 0.5082645 0.6768061
vt 0.4917355 0.6768061
vt 0.4390496 0.6140684
vt 0.4555785 0.6140684
vt 0.4555785 0.6444867
vt 0.4390496 0.6444867
vt 0.3161157 0.6787072
vt 0.3326446 0.6787072
vt 0.3326446 0.7091255
vt 0.3161157 0.7091255

# Normal
vn 0 0 -1

# Mesh description
g Level-1_mesh_0004

# Faces
f 1/1/1 2/2/1 3/3/1 4/4/1
f 5/5/1 6/6/1 7/7/1 8/8/1
f 9/1/1 10/2/1 11/3/1 12/4/1
f 13/9/1 14/10/1 15/11/1 16/12/1
f 17/9/1 18/10/1 19/11/1 20/12/1
f 21/13/1 22/14/1 23/15/1 24/16/1
f 25/13/1 26/14/1 27/15/1 28/16/1
f 29/13/1 30/14/1 31/15/1 32/16/1
f 33/13/1 34/14/1 35/15/1 36/16/1
f 37/5/1 38/6/1 39/7/1 40/8/1
f 41/1/1 42/2/1 43/3/1 44/4/1
f 45/1/1 46/2/1 47/3/1 48/4/1
f 49/5/1 50/6/1 51/7/1 52/8/1
f 53/13/1 54/14/1 55/15/1 56/16/1
f 57/13/1 58/14/1 59/15/1 60/16/1
f 61/13/1 62/14/1 63/15/1 64/16/1
f 65/13/1 66/14/1 67/15/1 68/16/1
f 69/5/1 70/6/1 71/7/1 72/8/1
f 73/13/1 74/14/1 75/15/1 76/16/1
f 77/13/1 78/14/1 79/15/1 80/16/1
f 81/13/1 82/14/1 83/15/1 84/16/1
f 85/5/1 86/6/1 87/7/1 88/8/1
f 89/13/1 90/14/1 91/15/1 92/16/1
f 93/1/1 94/2/1 95/3/1 96/4/1
f 97/1/1 98/2/1 99/3/1 100/4/1
f 101/13/1 102/14/1 103/15/1 104/16/1
f 105/1/1 106/2/1 107/3/1 108/4/1
f 109/1/1 110/2/1 111/3/1 112/4/1
f 113/1/1 114/2/1 115/3/1 116/4/1

