# Tiled2Unity generated file. Do not modify by hand.
# Wavefront file for 'level-2_mesh_0010.obj'

# Vertices (Count = 236)
v -336 -400 0
v -352 -400 0
v -352 -384 0
v -336 -384 0
v -320 -400 0
v -336 -400 0
v -336 -384 0
v -320 -384 0
v -304 -400 0
v -320 -400 0
v -320 -384 0
v -304 -384 0
v -288 -400 0
v -304 -400 0
v -304 -384 0
v -288 -384 0
v -272 -400 0
v -288 -400 0
v -288 -384 0
v -272 -384 0
v -256 -400 0
v -272 -400 0
v -272 -384 0
v -256 -384 0
v -240 -400 0
v -256 -400 0
v -256 -384 0
v -240 -384 0
v -224 -400 0
v -240 -400 0
v -240 -384 0
v -224 -384 0
v -208 -400 0
v -224 -400 0
v -224 -384 0
v -208 -384 0
v -192 -400 0
v -208 -400 0
v -208 -384 0
v -192 -384 0
v -336 -416 0
v -352 -416 0
v -352 -400 0
v -336 -400 0
v -320 -416 0
v -336 -416 0
v -336 -400 0
v -320 -400 0
v -304 -416 0
v -320 -416 0
v -320 -400 0
v -304 -400 0
v -288 -416 0
v -304 -416 0
v -304 -400 0
v -288 -400 0
v -272 -416 0
v -288 -416 0
v -288 -400 0
v -272 -400 0
v -256 -416 0
v -272 -416 0
v -272 -400 0
v -256 -400 0
v -240 -416 0
v -256 -416 0
v -256 -400 0
v -240 -400 0
v -224 -416 0
v -240 -416 0
v -240 -400 0
v -224 -400 0
v -208 -416 0
v -224 -416 0
v -224 -400 0
v -208 -400 0
v -192 -416 0
v -208 -416 0
v -208 -400 0
v -192 -400 0
v -336 -432 0
v -352 -432 0
v -352 -416 0
v -336 -416 0
v -320 -432 0
v -336 -432 0
v -336 -416 0
v -320 -416 0
v -304 -432 0
v -320 -432 0
v -320 -416 0
v -304 -416 0
v -288 -432 0
v -304 -432 0
v -304 -416 0
v -288 -416 0
v -272 -432 0
v -288 -432 0
v -288 -416 0
v -272 -416 0
v -256 -432 0
v -272 -432 0
v -272 -416 0
v -256 -416 0
v -240 -432 0
v -256 -432 0
v -256 -416 0
v -240 -416 0
v -224 -432 0
v -240 -432 0
v -240 -416 0
v -224 -416 0
v -208 -432 0
v -224 -432 0
v -224 -416 0
v -208 -416 0
v -192 -432 0
v -208 -432 0
v -208 -416 0
v -192 -416 0
v -336 -448 0
v -352 -448 0
v -352 -432 0
v -336 -432 0
v -320 -448 0
v -336 -448 0
v -336 -432 0
v -320 -432 0
v -304 -448 0
v -320 -448 0
v -320 -432 0
v -304 -432 0
v -288 -448 0
v -304 -448 0
v -304 -432 0
v -288 -432 0
v -272 -448 0
v -288 -448 0
v -288 -432 0
v -272 -432 0
v -256 -448 0
v -272 -448 0
v -272 -432 0
v -256 -432 0
v -240 -448 0
v -256 -448 0
v -256 -432 0
v -240 -432 0
v -224 -448 0
v -240 -448 0
v -240 -432 0
v -224 -432 0
v -208 -448 0
v -224 -448 0
v -224 -432 0
v -208 -432 0
v -192 -448 0
v -208 -448 0
v -208 -432 0
v -192 -432 0
v -336 -464 0
v -352 -464 0
v -352 -448 0
v -336 -448 0
v -320 -464 0
v -336 -464 0
v -336 -448 0
v -320 -448 0
v -304 -464 0
v -320 -464 0
v -320 -448 0
v -304 -448 0
v -288 -464 0
v -304 -464 0
v -304 -448 0
v -288 -448 0
v -272 -464 0
v -288 -464 0
v -288 -448 0
v -272 -448 0
v -256 -464 0
v -272 -464 0
v -272 -448 0
v -256 -448 0
v -240 -464 0
v -256 -464 0
v -256 -448 0
v -240 -448 0
v -224 -464 0
v -240 -464 0
v -240 -448 0
v -224 -448 0
v -208 -464 0
v -224 -464 0
v -224 -448 0
v -208 -448 0
v -192 -464 0
v -208 -464 0
v -208 -448 0
v -192 -448 0
v -272 -480 0
v -288 -480 0
v -288 -464 0
v -272 -464 0
v -240 -480 0
v -256 -480 0
v -256 -464 0
v -240 -464 0
v -288 -496 0
v -304 -496 0
v -304 -480 0
v -288 -480 0
v -256 -496 0
v -272 -496 0
v -272 -480 0
v -256 -480 0
v -224 -496 0
v -240 -496 0
v -240 -480 0
v -224 -480 0
v -288 -512 0
v -304 -512 0
v -304 -496 0
v -288 -496 0
v -256 -512 0
v -272 -512 0
v -272 -496 0
v -256 -496 0
v -224 -512 0
v -240 -512 0
v -240 -496 0
v -224 -496 0
v -224 -544 0
v -240 -544 0
v -240 -528 0
v -224 -528 0

# Texture cooridinates (Count = 64)
vt 0.3688017 0.3878327
vt 0.3853306 0.3878327
vt 0.3853306 0.418251
vt 0.3688017 0.418251
vt 0.5609504 0.5171102
vt 0.5444215 0.5171102
vt 0.5444215 0.5475285
vt 0.5609504 0.5475285
vt 0.5268595 0.5171102
vt 0.5268595 0.5475285
vt 0.5433884 0.5475285
vt 0.5433884 0.5171102
vt 0.5444215 0.5817491
vt 0.5609504 0.5817491
vt 0.5609504 0.6121673
vt 0.5444215 0.6121673
vt 0.4917355 0.5817491
vt 0.5082645 0.5817491
vt 0.5082645 0.6121673
vt 0.4917355 0.6121673
vt 0.5268595 0.5817491
vt 0.5433884 0.5817491
vt 0.5433884 0.6121673
vt 0.5268595 0.6121673
vt 0.5960744 0.5475285
vt 0.5960744 0.5171102
vt 0.5795454 0.5171102
vt 0.5795454 0.5475285
vt 0.5444215 0.5494297
vt 0.5609504 0.5494297
vt 0.5609504 0.5798479
vt 0.5444215 0.5798479
vt 0.5268595 0.5494297
vt 0.5433884 0.5494297
vt 0.5433884 0.5798479
vt 0.5268595 0.5798479
vt 0.5268595 0.2262357
vt 0.5433884 0.2262357
vt 0.5433884 0.256654
vt 0.5268595 0.256654
vt 0.5092975 0.1939163
vt 0.5258265 0.1939163
vt 0.5258265 0.2243346
vt 0.5092975 0.2243346
vt 0.5092975 0.2262357
vt 0.5258265 0.2262357
vt 0.5258265 0.256654
vt 0.5092975 0.256654
vt 0.7376033 0.6787072
vt 0.7541322 0.6787072
vt 0.7541322 0.7091255
vt 0.7376033 0.7091255
vt 0.7902893 0.904943
vt 0.8068182 0.904943
vt 0.8068182 0.9353612
vt 0.7902893 0.9353612
vt 0.7902893 0.8726236
vt 0.8068182 0.8726236
vt 0.8068182 0.9030418
vt 0.7902893 0.9030418
vt 0.6146694 0.6463878
vt 0.6311983 0.6463878
vt 0.6311983 0.6768061
vt 0.6146694 0.6768061

# Normal
vn 0 0 -1

# Mesh description
g level-2_mesh_0010

# Faces
f 1/1/1 2/2/1 3/3/1 4/4/1
f 5/5/1 6/6/1 7/7/1 8/8/1
f 9/6/1 10/5/1 11/8/1 12/7/1
f 13/5/1 14/6/1 15/7/1 16/8/1
f 17/6/1 18/5/1 19/8/1 20/7/1
f 21/5/1 22/6/1 23/7/1 24/8/1
f 25/6/1 26/5/1 27/8/1 28/7/1
f 29/5/1 30/6/1 31/7/1 32/8/1
f 33/6/1 34/5/1 35/8/1 36/7/1
f 37/2/1 38/1/1 39/4/1 40/3/1
f 41/9/1 42/10/1 43/11/1 44/12/1
f 45/13/1 46/14/1 47/15/1 48/16/1
f 49/17/1 50/18/1 51/19/1 52/20/1
f 53/17/1 54/18/1 55/19/1 56/20/1
f 57/17/1 58/18/1 59/19/1 60/20/1
f 61/17/1 62/18/1 63/19/1 64/20/1
f 65/17/1 66/18/1 67/19/1 68/20/1
f 69/17/1 70/18/1 71/19/1 72/20/1
f 73/21/1 74/22/1 75/23/1 76/24/1
f 77/25/1 78/26/1 79/27/1 80/28/1
f 81/12/1 82/11/1 83/10/1 84/9/1
f 85/29/1 86/30/1 87/31/1 88/32/1
f 89/17/1 90/18/1 91/19/1 92/20/1
f 93/17/1 94/18/1 95/19/1 96/20/1
f 97/17/1 98/18/1 99/19/1 100/20/1
f 101/17/1 102/18/1 103/19/1 104/20/1
f 105/17/1 106/18/1 107/19/1 108/20/1
f 109/17/1 110/18/1 111/19/1 112/20/1
f 113/33/1 114/34/1 115/35/1 116/36/1
f 117/28/1 118/27/1 119/26/1 120/25/1
f 121/1/1 122/4/1 123/3/1 124/2/1
f 125/9/1 126/12/1 127/11/1 128/10/1
f 129/12/1 130/9/1 131/10/1 132/11/1
f 133/9/1 134/12/1 135/11/1 136/10/1
f 137/12/1 138/9/1 139/10/1 140/11/1
f 141/9/1 142/12/1 143/11/1 144/10/1
f 145/12/1 146/9/1 147/10/1 148/11/1
f 149/9/1 150/12/1 151/11/1 152/10/1
f 153/12/1 154/9/1 155/10/1 156/11/1
f 157/4/1 158/1/1 159/2/1 160/3/1
f 161/37/1 162/38/1 163/39/1 164/40/1
f 165/41/1 166/42/1 167/43/1 168/44/1
f 169/41/1 170/42/1 171/43/1 172/44/1
f 173/41/1 174/42/1 175/43/1 176/44/1
f 177/41/1 178/42/1 179/43/1 180/44/1
f 181/41/1 182/42/1 183/43/1 184/44/1
f 185/41/1 186/42/1 187/43/1 188/44/1
f 189/41/1 190/42/1 191/43/1 192/44/1
f 193/41/1 194/42/1 195/43/1 196/44/1
f 197/45/1 198/46/1 199/47/1 200/48/1
f 201/49/1 202/50/1 203/51/1 204/52/1
f 205/49/1 206/50/1 207/51/1 208/52/1
f 209/53/1 210/54/1 211/55/1 212/56/1
f 213/53/1 214/54/1 215/55/1 216/56/1
f 217/53/1 218/54/1 219/55/1 220/56/1
f 221/57/1 222/58/1 223/59/1 224/60/1
f 225/57/1 226/58/1 227/59/1 228/60/1
f 229/57/1 230/58/1 231/59/1 232/60/1
f 233/61/1 234/62/1 235/63/1 236/64/1

