# Tiled2Unity generated file. Do not modify by hand.
# Wavefront file for 'level-2_mesh_0004.obj'

# Vertices (Count = 480)
v -480 -64 0
v -496 -64 0
v -496 -48 0
v -480 -48 0
v -464 -64 0
v -480 -64 0
v -480 -48 0
v -464 -48 0
v -448 -64 0
v -464 -64 0
v -464 -48 0
v -448 -48 0
v -384 -64 0
v -400 -64 0
v -400 -48 0
v -384 -48 0
v -368 -64 0
v -384 -64 0
v -384 -48 0
v -368 -48 0
v -352 -64 0
v -368 -64 0
v -368 -48 0
v -352 -48 0
v -288 -64 0
v -304 -64 0
v -304 -48 0
v -288 -48 0
v -272 -64 0
v -288 -64 0
v -288 -48 0
v -272 -48 0
v -256 -64 0
v -272 -64 0
v -272 -48 0
v -256 -48 0
v -480 -80 0
v -496 -80 0
v -496 -64 0
v -480 -64 0
v -464 -80 0
v -480 -80 0
v -480 -64 0
v -464 -64 0
v -448 -80 0
v -464 -80 0
v -464 -64 0
v -448 -64 0
v -384 -80 0
v -400 -80 0
v -400 -64 0
v -384 -64 0
v -368 -80 0
v -384 -80 0
v -384 -64 0
v -368 -64 0
v -352 -80 0
v -368 -80 0
v -368 -64 0
v -352 -64 0
v -288 -80 0
v -304 -80 0
v -304 -64 0
v -288 -64 0
v -272 -80 0
v -288 -80 0
v -288 -64 0
v -272 -64 0
v -256 -80 0
v -272 -80 0
v -272 -64 0
v -256 -64 0
v -480 -96 0
v -496 -96 0
v -496 -80 0
v -480 -80 0
v -464 -96 0
v -480 -96 0
v -480 -80 0
v -464 -80 0
v -448 -96 0
v -464 -96 0
v -464 -80 0
v -448 -80 0
v -384 -96 0
v -400 -96 0
v -400 -80 0
v -384 -80 0
v -368 -96 0
v -384 -96 0
v -384 -80 0
v -368 -80 0
v -352 -96 0
v -368 -96 0
v -368 -80 0
v -352 -80 0
v -288 -96 0
v -304 -96 0
v -304 -80 0
v -288 -80 0
v -272 -96 0
v -288 -96 0
v -288 -80 0
v -272 -80 0
v -256 -96 0
v -272 -96 0
v -272 -80 0
v -256 -80 0
v -288 -128 0
v -304 -128 0
v -304 -112 0
v -288 -112 0
v -272 -128 0
v -288 -128 0
v -288 -112 0
v -272 -112 0
v -256 -128 0
v -272 -128 0
v -272 -112 0
v -256 -112 0
v -288 -144 0
v -304 -144 0
v -304 -128 0
v -288 -128 0
v -272 -144 0
v -288 -144 0
v -288 -128 0
v -272 -128 0
v -256 -144 0
v -272 -144 0
v -272 -128 0
v -256 -128 0
v -288 -160 0
v -304 -160 0
v -304 -144 0
v -288 -144 0
v -272 -160 0
v -288 -160 0
v -288 -144 0
v -272 -144 0
v -256 -160 0
v -272 -160 0
v -272 -144 0
v -256 -144 0
v -288 -192 0
v -304 -192 0
v -304 -176 0
v -288 -176 0
v -272 -192 0
v -288 -192 0
v -288 -176 0
v -272 -176 0
v -256 -192 0
v -272 -192 0
v -272 -176 0
v -256 -176 0
v -288 -208 0
v -304 -208 0
v -304 -192 0
v -288 -192 0
v -272 -208 0
v -288 -208 0
v -288 -192 0
v -272 -192 0
v -256 -208 0
v -272 -208 0
v -272 -192 0
v -256 -192 0
v -288 -224 0
v -304 -224 0
v -304 -208 0
v -288 -208 0
v -272 -224 0
v -288 -224 0
v -288 -208 0
v -272 -208 0
v -256 -224 0
v -272 -224 0
v -272 -208 0
v -256 -208 0
v -1088 -352 0
v -1104 -352 0
v -1104 -336 0
v -1088 -336 0
v -896 -352 0
v -912 -352 0
v -912 -336 0
v -896 -336 0
v -1088 -368 0
v -1104 -368 0
v -1104 -352 0
v -1088 -352 0
v -896 -368 0
v -912 -368 0
v -912 -352 0
v -896 -352 0
v -1088 -384 0
v -1104 -384 0
v -1104 -368 0
v -1088 -368 0
v -1088 -400 0
v -1104 -400 0
v -1104 -384 0
v -1088 -384 0
v -896 -400 0
v -912 -400 0
v -912 -384 0
v -896 -384 0
v -896 -416 0
v -912 -416 0
v -912 -400 0
v -896 -400 0
v -848 -432 0
v -864 -432 0
v -864 -416 0
v -848 -416 0
v -832 -432 0
v -848 -432 0
v -848 -416 0
v -832 -416 0
v -816 -432 0
v -832 -432 0
v -832 -416 0
v -816 -416 0
v -800 -432 0
v -816 -432 0
v -816 -416 0
v -800 -416 0
v -784 -432 0
v -800 -432 0
v -800 -416 0
v -784 -416 0
v -768 -432 0
v -784 -432 0
v -784 -416 0
v -768 -416 0
v -752 -432 0
v -768 -432 0
v -768 -416 0
v -752 -416 0
v -736 -432 0
v -752 -432 0
v -752 -416 0
v -736 -416 0
v -720 -432 0
v -736 -432 0
v -736 -416 0
v -720 -416 0
v -1104 -448 0
v -1120 -448 0
v -1120 -432 0
v -1104 -432 0
v -1088 -448 0
v -1104 -448 0
v -1104 -432 0
v -1088 -432 0
v -848 -448 0
v -864 -448 0
v -864 -432 0
v -848 -432 0
v -832 -448 0
v -848 -448 0
v -848 -432 0
v -832 -432 0
v -816 -448 0
v -832 -448 0
v -832 -432 0
v -816 -432 0
v -800 -448 0
v -816 -448 0
v -816 -432 0
v -800 -432 0
v -784 -448 0
v -800 -448 0
v -800 -432 0
v -784 -432 0
v -768 -448 0
v -784 -448 0
v -784 -432 0
v -768 -432 0
v -752 -448 0
v -768 -448 0
v -768 -432 0
v -752 -432 0
v -736 -448 0
v -752 -448 0
v -752 -432 0
v -736 -432 0
v -720 -448 0
v -736 -448 0
v -736 -432 0
v -720 -432 0
v -1104 -464 0
v -1120 -464 0
v -1120 -448 0
v -1104 -448 0
v -1088 -464 0
v -1104 -464 0
v -1104 -448 0
v -1088 -448 0
v -848 -464 0
v -864 -464 0
v -864 -448 0
v -848 -448 0
v -832 -464 0
v -848 -464 0
v -848 -448 0
v -832 -448 0
v -816 -464 0
v -832 -464 0
v -832 -448 0
v -816 -448 0
v -800 -464 0
v -816 -464 0
v -816 -448 0
v -800 -448 0
v -784 -464 0
v -800 -464 0
v -800 -448 0
v -784 -448 0
v -768 -464 0
v -784 -464 0
v -784 -448 0
v -768 -448 0
v -752 -464 0
v -768 -464 0
v -768 -448 0
v -752 -448 0
v -736 -464 0
v -752 -464 0
v -752 -448 0
v -736 -448 0
v -720 -464 0
v -736 -464 0
v -736 -448 0
v -720 -448 0
v -848 -480 0
v -864 -480 0
v -864 -464 0
v -848 -464 0
v -832 -480 0
v -848 -480 0
v -848 -464 0
v -832 -464 0
v -816 -480 0
v -832 -480 0
v -832 -464 0
v -816 -464 0
v -800 -480 0
v -816 -480 0
v -816 -464 0
v -800 -464 0
v -784 -480 0
v -800 -480 0
v -800 -464 0
v -784 -464 0
v -768 -480 0
v -784 -480 0
v -784 -464 0
v -768 -464 0
v -752 -480 0
v -768 -480 0
v -768 -464 0
v -752 -464 0
v -736 -480 0
v -752 -480 0
v -752 -464 0
v -736 -464 0
v -720 -480 0
v -736 -480 0
v -736 -464 0
v -720 -464 0
v -848 -496 0
v -864 -496 0
v -864 -480 0
v -848 -480 0
v -832 -496 0
v -848 -496 0
v -848 -480 0
v -832 -480 0
v -816 -496 0
v -832 -496 0
v -832 -480 0
v -816 -480 0
v -800 -496 0
v -816 -496 0
v -816 -480 0
v -800 -480 0
v -784 -496 0
v -800 -496 0
v -800 -480 0
v -784 -480 0
v -768 -496 0
v -784 -496 0
v -784 -480 0
v -768 -480 0
v -752 -496 0
v -768 -496 0
v -768 -480 0
v -752 -480 0
v -736 -496 0
v -752 -496 0
v -752 -480 0
v -736 -480 0
v -720 -496 0
v -736 -496 0
v -736 -480 0
v -720 -480 0
v -448 -496 0
v -464 -496 0
v -464 -480 0
v -448 -480 0
v -432 -496 0
v -448 -496 0
v -448 -480 0
v -432 -480 0
v -416 -496 0
v -432 -496 0
v -432 -480 0
v -416 -480 0
v -848 -512 0
v -864 -512 0
v -864 -496 0
v -848 -496 0
v -832 -512 0
v -848 -512 0
v -848 -496 0
v -832 -496 0
v -816 -512 0
v -832 -512 0
v -832 -496 0
v -816 -496 0
v -800 -512 0
v -816 -512 0
v -816 -496 0
v -800 -496 0
v -784 -512 0
v -800 -512 0
v -800 -496 0
v -784 -496 0
v -768 -512 0
v -784 -512 0
v -784 -496 0
v -768 -496 0
v -752 -512 0
v -768 -512 0
v -768 -496 0
v -752 -496 0
v -736 -512 0
v -752 -512 0
v -752 -496 0
v -736 -496 0
v -720 -512 0
v -736 -512 0
v -736 -496 0
v -720 -496 0
v -448 -512 0
v -464 -512 0
v -464 -496 0
v -448 -496 0
v -432 -512 0
v -448 -512 0
v -448 -496 0
v -432 -496 0
v -416 -512 0
v -432 -512 0
v -432 -496 0
v -416 -496 0
v -448 -528 0
v -464 -528 0
v -464 -512 0
v -448 -512 0
v -432 -528 0
v -448 -528 0
v -448 -512 0
v -432 -512 0
v -416 -528 0
v -432 -528 0
v -432 -512 0
v -416 -512 0

# Texture cooridinates (Count = 80)
vt 0.07024793 0.7756654
vt 0.08677686 0.7756654
vt 0.08677686 0.8060837
vt 0.07024793 0.8060837
vt 0.05268595 0.7756654
vt 0.06921487 0.7756654
vt 0.06921487 0.8060837
vt 0.05268595 0.8060837
vt 0.03512397 0.7756654
vt 0.05165289 0.7756654
vt 0.05165289 0.8060837
vt 0.03512397 0.8060837
vt 0.07024793 0.743346
vt 0.08677686 0.743346
vt 0.08677686 0.7737643
vt 0.07024793 0.7737643
vt 0.05268595 0.743346
vt 0.06921487 0.743346
vt 0.06921487 0.7737643
vt 0.05268595 0.7737643
vt 0.03512397 0.743346
vt 0.05165289 0.743346
vt 0.05165289 0.7737643
vt 0.03512397 0.7737643
vt 0.07024793 0.7110266
vt 0.08677686 0.7110266
vt 0.08677686 0.7414448
vt 0.07024793 0.7414448
vt 0.05268595 0.7110266
vt 0.06921487 0.7110266
vt 0.06921487 0.7414448
vt 0.05268595 0.7414448
vt 0.03512397 0.7110266
vt 0.05165289 0.7110266
vt 0.05165289 0.7414448
vt 0.03512397 0.7414448
vt 0.4039256 0.6463878
vt 0.4204545 0.6463878
vt 0.4204545 0.6768061
vt 0.4039256 0.6768061
vt 0.4039256 0.6140684
vt 0.4204545 0.6140684
vt 0.4204545 0.6444867
vt 0.4039256 0.6444867
vt 0.07024793 0.6787072
vt 0.08677686 0.6787072
vt 0.08677686 0.7091255
vt 0.07024793 0.7091255
vt 0.05268595 0.6787072
vt 0.06921487 0.6787072
vt 0.06921487 0.7091255
vt 0.05268595 0.7091255
vt 0.03512397 0.6787072
vt 0.05165289 0.6787072
vt 0.05165289 0.7091255
vt 0.03512397 0.7091255
vt 0.07024793 0.6463878
vt 0.08677686 0.6463878
vt 0.08677686 0.6768061
vt 0.07024793 0.6768061
vt 0.05268595 0.6463878
vt 0.06921487 0.6463878
vt 0.06921487 0.6768061
vt 0.05268595 0.6768061
vt 0.03512397 0.6463878
vt 0.05165289 0.6463878
vt 0.05165289 0.6768061
vt 0.03512397 0.6768061
vt 0.07024793 0.6140684
vt 0.08677686 0.6140684
vt 0.08677686 0.6444867
vt 0.07024793 0.6444867
vt 0.05268595 0.6140684
vt 0.06921487 0.6140684
vt 0.06921487 0.6444867
vt 0.05268595 0.6444867
vt 0.03512397 0.6140684
vt 0.05165289 0.6140684
vt 0.05165289 0.6444867
vt 0.03512397 0.6444867

# Normal
vn 0 0 -1

# Mesh description
g level-2_mesh_0004

# Faces
f 1/1/1 2/2/1 3/3/1 4/4/1
f 5/5/1 6/6/1 7/7/1 8/8/1
f 9/9/1 10/10/1 11/11/1 12/12/1
f 13/1/1 14/2/1 15/3/1 16/4/1
f 17/5/1 18/6/1 19/7/1 20/8/1
f 21/9/1 22/10/1 23/11/1 24/12/1
f 25/1/1 26/2/1 27/3/1 28/4/1
f 29/5/1 30/6/1 31/7/1 32/8/1
f 33/9/1 34/10/1 35/11/1 36/12/1
f 37/13/1 38/14/1 39/15/1 40/16/1
f 41/17/1 42/18/1 43/19/1 44/20/1
f 45/21/1 46/22/1 47/23/1 48/24/1
f 49/13/1 50/14/1 51/15/1 52/16/1
f 53/17/1 54/18/1 55/19/1 56/20/1
f 57/21/1 58/22/1 59/23/1 60/24/1
f 61/13/1 62/14/1 63/15/1 64/16/1
f 65/17/1 66/18/1 67/19/1 68/20/1
f 69/21/1 70/22/1 71/23/1 72/24/1
f 73/25/1 74/26/1 75/27/1 76/28/1
f 77/29/1 78/30/1 79/31/1 80/32/1
f 81/33/1 82/34/1 83/35/1 84/36/1
f 85/25/1 86/26/1 87/27/1 88/28/1
f 89/29/1 90/30/1 91/31/1 92/32/1
f 93/33/1 94/34/1 95/35/1 96/36/1
f 97/25/1 98/26/1 99/27/1 100/28/1
f 101/29/1 102/30/1 103/31/1 104/32/1
f 105/33/1 106/34/1 107/35/1 108/36/1
f 109/1/1 110/2/1 111/3/1 112/4/1
f 113/5/1 114/6/1 115/7/1 116/8/1
f 117/9/1 118/10/1 119/11/1 120/12/1
f 121/13/1 122/14/1 123/15/1 124/16/1
f 125/17/1 126/18/1 127/19/1 128/20/1
f 129/21/1 130/22/1 131/23/1 132/24/1
f 133/25/1 134/26/1 135/27/1 136/28/1
f 137/29/1 138/30/1 139/31/1 140/32/1
f 141/33/1 142/34/1 143/35/1 144/36/1
f 145/1/1 146/2/1 147/3/1 148/4/1
f 149/5/1 150/6/1 151/7/1 152/8/1
f 153/9/1 154/10/1 155/11/1 156/12/1
f 157/13/1 158/14/1 159/15/1 160/16/1
f 161/17/1 162/18/1 163/19/1 164/20/1
f 165/21/1 166/22/1 167/23/1 168/24/1
f 169/25/1 170/26/1 171/27/1 172/28/1
f 173/29/1 174/30/1 175/31/1 176/32/1
f 177/33/1 178/34/1 179/35/1 180/36/1
f 181/37/1 182/38/1 183/39/1 184/40/1
f 185/37/1 186/38/1 187/39/1 188/40/1
f 189/41/1 190/42/1 191/43/1 192/44/1
f 193/41/1 194/42/1 195/43/1 196/44/1
f 197/37/1 198/38/1 199/39/1 200/40/1
f 201/41/1 202/42/1 203/43/1 204/44/1
f 205/37/1 206/38/1 207/39/1 208/40/1
f 209/41/1 210/42/1 211/43/1 212/44/1
f 213/45/1 214/46/1 215/47/1 216/48/1
f 217/49/1 218/50/1 219/51/1 220/52/1
f 221/53/1 222/54/1 223/55/1 224/56/1
f 225/45/1 226/46/1 227/47/1 228/48/1
f 229/49/1 230/50/1 231/51/1 232/52/1
f 233/53/1 234/54/1 235/55/1 236/56/1
f 237/45/1 238/46/1 239/47/1 240/48/1
f 241/49/1 242/50/1 243/51/1 244/52/1
f 245/53/1 246/54/1 247/55/1 248/56/1
f 249/37/1 250/38/1 251/39/1 252/40/1
f 253/37/1 254/38/1 255/39/1 256/40/1
f 257/57/1 258/58/1 259/59/1 260/60/1
f 261/61/1 262/62/1 263/63/1 264/64/1
f 265/65/1 266/66/1 267/67/1 268/68/1
f 269/57/1 270/58/1 271/59/1 272/60/1
f 273/61/1 274/62/1 275/63/1 276/64/1
f 277/65/1 278/66/1 279/67/1 280/68/1
f 281/57/1 282/58/1 283/59/1 284/60/1
f 285/61/1 286/62/1 287/63/1 288/64/1
f 289/65/1 290/66/1 291/67/1 292/68/1
f 293/41/1 294/42/1 295/43/1 296/44/1
f 297/41/1 298/42/1 299/43/1 300/44/1
f 301/69/1 302/70/1 303/71/1 304/72/1
f 305/73/1 306/74/1 307/75/1 308/76/1
f 309/77/1 310/78/1 311/79/1 312/80/1
f 313/69/1 314/70/1 315/71/1 316/72/1
f 317/73/1 318/74/1 319/75/1 320/76/1
f 321/77/1 322/78/1 323/79/1 324/80/1
f 325/69/1 326/70/1 327/71/1 328/72/1
f 329/73/1 330/74/1 331/75/1 332/76/1
f 333/77/1 334/78/1 335/79/1 336/80/1
f 337/45/1 338/46/1 339/47/1 340/48/1
f 341/49/1 342/50/1 343/51/1 344/52/1
f 345/53/1 346/54/1 347/55/1 348/56/1
f 349/45/1 350/46/1 351/47/1 352/48/1
f 353/49/1 354/50/1 355/51/1 356/52/1
f 357/53/1 358/54/1 359/55/1 360/56/1
f 361/45/1 362/46/1 363/47/1 364/48/1
f 365/49/1 366/50/1 367/51/1 368/52/1
f 369/53/1 370/54/1 371/55/1 372/56/1
f 373/57/1 374/58/1 375/59/1 376/60/1
f 377/61/1 378/62/1 379/63/1 380/64/1
f 381/65/1 382/66/1 383/67/1 384/68/1
f 385/57/1 386/58/1 387/59/1 388/60/1
f 389/61/1 390/62/1 391/63/1 392/64/1
f 393/65/1 394/66/1 395/67/1 396/68/1
f 397/57/1 398/58/1 399/59/1 400/60/1
f 401/61/1 402/62/1 403/63/1 404/64/1
f 405/65/1 406/66/1 407/67/1 408/68/1
f 409/1/1 410/2/1 411/3/1 412/4/1
f 413/5/1 414/6/1 415/7/1 416/8/1
f 417/9/1 418/10/1 419/11/1 420/12/1
f 421/69/1 422/70/1 423/71/1 424/72/1
f 425/73/1 426/74/1 427/75/1 428/76/1
f 429/77/1 430/78/1 431/79/1 432/80/1
f 433/69/1 434/70/1 435/71/1 436/72/1
f 437/73/1 438/74/1 439/75/1 440/76/1
f 441/77/1 442/78/1 443/79/1 444/80/1
f 445/69/1 446/70/1 447/71/1 448/72/1
f 449/73/1 450/74/1 451/75/1 452/76/1
f 453/77/1 454/78/1 455/79/1 456/80/1
f 457/13/1 458/14/1 459/15/1 460/16/1
f 461/17/1 462/18/1 463/19/1 464/20/1
f 465/21/1 466/22/1 467/23/1 468/24/1
f 469/25/1 470/26/1 471/27/1 472/28/1
f 473/29/1 474/30/1 475/31/1 476/32/1
f 477/33/1 478/34/1 479/35/1 480/36/1

