# Tiled2Unity generated file. Do not modify by hand.
# Wavefront file for 'level-2_mesh_0006.obj'

# Vertices (Count = 300)
v -1376 -608 0
v -1392 -608 0
v -1392 -592 0
v -1376 -592 0
v -1344 -624 0
v -1360 -624 0
v -1360 -608 0
v -1344 -608 0
v -1456 -640 0
v -1472 -640 0
v -1472 -624 0
v -1456 -624 0
v -1440 -656 0
v -1456 -656 0
v -1456 -640 0
v -1440 -640 0
v -1392 -656 0
v -1408 -656 0
v -1408 -640 0
v -1392 -640 0
v -1280 -656 0
v -1296 -656 0
v -1296 -640 0
v -1280 -640 0
v -1472 -672 0
v -1488 -672 0
v -1488 -656 0
v -1472 -656 0
v -1504 -688 0
v -1520 -688 0
v -1520 -672 0
v -1504 -672 0
v -1456 -688 0
v -1472 -688 0
v -1472 -672 0
v -1456 -672 0
v -1392 -688 0
v -1408 -688 0
v -1408 -672 0
v -1392 -672 0
v -1376 -688 0
v -1392 -688 0
v -1392 -672 0
v -1376 -672 0
v -1360 -688 0
v -1376 -688 0
v -1376 -672 0
v -1360 -672 0
v -1536 -704 0
v -1552 -704 0
v -1552 -688 0
v -1536 -688 0
v -1520 -704 0
v -1536 -704 0
v -1536 -688 0
v -1520 -688 0
v -1408 -704 0
v -1424 -704 0
v -1424 -688 0
v -1408 -688 0
v -1376 -704 0
v -1392 -704 0
v -1392 -688 0
v -1376 -688 0
v -1520 -720 0
v -1536 -720 0
v -1536 -704 0
v -1520 -704 0
v -1504 -720 0
v -1520 -720 0
v -1520 -704 0
v -1504 -704 0
v -1408 -720 0
v -1424 -720 0
v -1424 -704 0
v -1408 -704 0
v -1392 -720 0
v -1408 -720 0
v -1408 -704 0
v -1392 -704 0
v -1376 -720 0
v -1392 -720 0
v -1392 -704 0
v -1376 -704 0
v -1360 -720 0
v -1376 -720 0
v -1376 -704 0
v -1360 -704 0
v -1344 -720 0
v -1360 -720 0
v -1360 -704 0
v -1344 -704 0
v -1280 -720 0
v -1296 -720 0
v -1296 -704 0
v -1280 -704 0
v -1264 -720 0
v -1280 -720 0
v -1280 -704 0
v -1264 -704 0
v -1248 -720 0
v -1264 -720 0
v -1264 -704 0
v -1248 -704 0
v -1376 -736 0
v -1392 -736 0
v -1392 -720 0
v -1376 -720 0
v -1344 -736 0
v -1360 -736 0
v -1360 -720 0
v -1344 -720 0
v -1280 -736 0
v -1296 -736 0
v -1296 -720 0
v -1280 -720 0
v -1264 -736 0
v -1280 -736 0
v -1280 -720 0
v -1264 -720 0
v -1248 -736 0
v -1264 -736 0
v -1264 -720 0
v -1248 -720 0
v -1168 -736 0
v -1184 -736 0
v -1184 -720 0
v -1168 -720 0
v -1152 -736 0
v -1168 -736 0
v -1168 -720 0
v -1152 -720 0
v -1504 -752 0
v -1520 -752 0
v -1520 -736 0
v -1504 -736 0
v -1424 -752 0
v -1440 -752 0
v -1440 -736 0
v -1424 -736 0
v -1360 -752 0
v -1376 -752 0
v -1376 -736 0
v -1360 -736 0
v -1344 -752 0
v -1360 -752 0
v -1360 -736 0
v -1344 -736 0
v -1104 -752 0
v -1120 -752 0
v -1120 -736 0
v -1104 -736 0
v -1088 -752 0
v -1104 -752 0
v -1104 -736 0
v -1088 -736 0
v -1440 -768 0
v -1456 -768 0
v -1456 -752 0
v -1440 -752 0
v -1408 -784 0
v -1424 -784 0
v -1424 -768 0
v -1408 -768 0
v -1424 -800 0
v -1440 -800 0
v -1440 -784 0
v -1424 -784 0
v -1344 -800 0
v -1360 -800 0
v -1360 -784 0
v -1344 -784 0
v -1472 -816 0
v -1488 -816 0
v -1488 -800 0
v -1472 -800 0
v -1440 -816 0
v -1456 -816 0
v -1456 -800 0
v -1440 -800 0
v -1392 -816 0
v -1408 -816 0
v -1408 -800 0
v -1392 -800 0
v -1008 -816 0
v -1024 -816 0
v -1024 -800 0
v -1008 -800 0
v -992 -816 0
v -1008 -816 0
v -1008 -800 0
v -992 -800 0
v -1184 -832 0
v -1200 -832 0
v -1200 -816 0
v -1184 -816 0
v -1152 -832 0
v -1168 -832 0
v -1168 -816 0
v -1152 -816 0
v -1136 -832 0
v -1152 -832 0
v -1152 -816 0
v -1136 -816 0
v -1392 -848 0
v -1408 -848 0
v -1408 -832 0
v -1392 -832 0
v -1312 -848 0
v -1328 -848 0
v -1328 -832 0
v -1312 -832 0
v -1216 -848 0
v -1232 -848 0
v -1232 -832 0
v -1216 -832 0
v -1184 -848 0
v -1200 -848 0
v -1200 -832 0
v -1184 -832 0
v -1168 -848 0
v -1184 -848 0
v -1184 -832 0
v -1168 -832 0
v -1136 -848 0
v -1152 -848 0
v -1152 -832 0
v -1136 -832 0
v -1440 -864 0
v -1456 -864 0
v -1456 -848 0
v -1440 -848 0
v -1184 -864 0
v -1200 -864 0
v -1200 -848 0
v -1184 -848 0
v -1168 -864 0
v -1184 -864 0
v -1184 -848 0
v -1168 -848 0
v -1152 -864 0
v -1168 -864 0
v -1168 -848 0
v -1152 -848 0
v -976 -864 0
v -992 -864 0
v -992 -848 0
v -976 -848 0
v -1168 -880 0
v -1184 -880 0
v -1184 -864 0
v -1168 -864 0
v -1136 -880 0
v -1152 -880 0
v -1152 -864 0
v -1136 -864 0
v -1408 -896 0
v -1424 -896 0
v -1424 -880 0
v -1408 -880 0
v -1104 -896 0
v -1120 -896 0
v -1120 -880 0
v -1104 -880 0
v -1088 -896 0
v -1104 -896 0
v -1104 -880 0
v -1088 -880 0
v -1072 -896 0
v -1088 -896 0
v -1088 -880 0
v -1072 -880 0
v -1472 -912 0
v -1488 -912 0
v -1488 -896 0
v -1472 -896 0
v -1104 -912 0
v -1120 -912 0
v -1120 -896 0
v -1104 -896 0
v -1088 -912 0
v -1104 -912 0
v -1104 -896 0
v -1088 -896 0
v -1056 -912 0
v -1072 -912 0
v -1072 -896 0
v -1056 -896 0
v -1248 -928 0
v -1264 -928 0
v -1264 -912 0
v -1248 -912 0
v -1104 -928 0
v -1120 -928 0
v -1120 -912 0
v -1104 -912 0
v -1072 -928 0
v -1088 -928 0
v -1088 -912 0
v -1072 -912 0

# Texture cooridinates (Count = 16)
vt 0.4566116 0.6140684
vt 0.4731405 0.6140684
vt 0.4731405 0.6444867
vt 0.4566116 0.6444867
vt 0.4390496 0.6140684
vt 0.4555785 0.6140684
vt 0.4555785 0.6444867
vt 0.4390496 0.6444867
vt 0.4917355 0.6463878
vt 0.5082645 0.6463878
vt 0.5082645 0.6768061
vt 0.4917355 0.6768061
vt 0.4917355 0.6140684
vt 0.5082645 0.6140684
vt 0.5082645 0.6444867
vt 0.4917355 0.6444867

# Normal
vn 0 0 -1

# Mesh description
g level-2_mesh_0006

# Faces
f 1/1/1 2/2/1 3/3/1 4/4/1
f 5/5/1 6/6/1 7/7/1 8/8/1
f 9/1/1 10/2/1 11/3/1 12/4/1
f 13/5/1 14/6/1 15/7/1 16/8/1
f 17/1/1 18/2/1 19/3/1 20/4/1
f 21/1/1 22/2/1 23/3/1 24/4/1
f 25/5/1 26/6/1 27/7/1 28/8/1
f 29/1/1 30/2/1 31/3/1 32/4/1
f 33/5/1 34/6/1 35/7/1 36/8/1
f 37/9/1 38/10/1 39/11/1 40/12/1
f 41/5/1 42/6/1 43/7/1 44/8/1
f 45/10/1 46/9/1 47/12/1 48/11/1
f 49/1/1 50/2/1 51/3/1 52/4/1
f 53/1/1 54/2/1 55/3/1 56/4/1
f 57/13/1 58/14/1 59/15/1 60/16/1
f 61/1/1 62/2/1 63/3/1 64/4/1
f 65/1/1 66/2/1 67/3/1 68/4/1
f 69/1/1 70/2/1 71/3/1 72/4/1
f 73/9/1 74/10/1 75/11/1 76/12/1
f 77/5/1 78/6/1 79/7/1 80/8/1
f 81/13/1 82/14/1 83/15/1 84/16/1
f 85/13/1 86/14/1 87/15/1 88/16/1
f 89/9/1 90/10/1 91/11/1 92/12/1
f 93/1/1 94/2/1 95/3/1 96/4/1
f 97/5/1 98/6/1 99/7/1 100/8/1
f 101/10/1 102/9/1 103/12/1 104/11/1
f 105/9/1 106/10/1 107/11/1 108/12/1
f 109/13/1 110/14/1 111/15/1 112/16/1
f 113/10/1 114/9/1 115/12/1 116/11/1
f 117/9/1 118/10/1 119/11/1 120/12/1
f 121/1/1 122/2/1 123/3/1 124/4/1
f 125/9/1 126/10/1 127/11/1 128/12/1
f 129/1/1 130/2/1 131/3/1 132/4/1
f 133/1/1 134/2/1 135/3/1 136/4/1
f 137/5/1 138/6/1 139/7/1 140/8/1
f 141/10/1 142/9/1 143/12/1 144/11/1
f 145/5/1 146/6/1 147/7/1 148/8/1
f 149/9/1 150/10/1 151/11/1 152/12/1
f 153/1/1 154/2/1 155/3/1 156/4/1
f 157/9/1 158/10/1 159/11/1 160/12/1
f 161/1/1 162/2/1 163/3/1 164/4/1
f 165/5/1 166/6/1 167/7/1 168/8/1
f 169/1/1 170/2/1 171/3/1 172/4/1
f 173/9/1 174/10/1 175/11/1 176/12/1
f 177/1/1 178/2/1 179/3/1 180/4/1
f 181/9/1 182/10/1 183/11/1 184/12/1
f 185/2/1 186/1/1 187/4/1 188/3/1
f 189/9/1 190/10/1 191/11/1 192/12/1
f 193/5/1 194/6/1 195/7/1 196/8/1
f 197/10/1 198/9/1 199/12/1 200/11/1
f 201/5/1 202/6/1 203/7/1 204/8/1
f 205/5/1 206/6/1 207/7/1 208/8/1
f 209/9/1 210/10/1 211/11/1 212/12/1
f 213/5/1 214/6/1 215/7/1 216/8/1
f 217/1/1 218/2/1 219/3/1 220/4/1
f 221/5/1 222/6/1 223/7/1 224/8/1
f 225/9/1 226/10/1 227/11/1 228/12/1
f 229/5/1 230/6/1 231/7/1 232/8/1
f 233/10/1 234/9/1 235/12/1 236/11/1
f 237/9/1 238/10/1 239/11/1 240/12/1
f 241/1/1 242/2/1 243/3/1 244/4/1
f 245/9/1 246/10/1 247/11/1 248/12/1
f 249/5/1 250/6/1 251/7/1 252/8/1
f 253/9/1 254/10/1 255/11/1 256/12/1
f 257/9/1 258/10/1 259/11/1 260/12/1
f 261/1/1 262/2/1 263/3/1 264/4/1
f 265/5/1 266/6/1 267/7/1 268/8/1
f 269/9/1 270/10/1 271/11/1 272/12/1
f 273/5/1 274/6/1 275/7/1 276/8/1
f 277/5/1 278/6/1 279/7/1 280/8/1
f 281/5/1 282/6/1 283/7/1 284/8/1
f 285/5/1 286/6/1 287/7/1 288/8/1
f 289/9/1 290/10/1 291/11/1 292/12/1
f 293/5/1 294/6/1 295/7/1 296/8/1
f 297/1/1 298/2/1 299/3/1 300/4/1

