# Tiled2Unity generated file. Do not modify by hand.
# Wavefront file for 'level-2_mesh_0007.obj'

# Vertices (Count = 320)
v -320 -400 0
v -336 -400 0
v -336 -384 0
v -320 -384 0
v -304 -400 0
v -320 -400 0
v -320 -384 0
v -304 -384 0
v -288 -400 0
v -304 -400 0
v -304 -384 0
v -288 -384 0
v -272 -400 0
v -288 -400 0
v -288 -384 0
v -272 -384 0
v -256 -400 0
v -272 -400 0
v -272 -384 0
v -256 -384 0
v -240 -400 0
v -256 -400 0
v -256 -384 0
v -240 -384 0
v -224 -400 0
v -240 -400 0
v -240 -384 0
v -224 -384 0
v -208 -400 0
v -224 -400 0
v -224 -384 0
v -208 -384 0
v -320 -416 0
v -336 -416 0
v -336 -400 0
v -320 -400 0
v -304 -416 0
v -320 -416 0
v -320 -400 0
v -304 -400 0
v -288 -416 0
v -304 -416 0
v -304 -400 0
v -288 -400 0
v -272 -416 0
v -288 -416 0
v -288 -400 0
v -272 -400 0
v -256 -416 0
v -272 -416 0
v -272 -400 0
v -256 -400 0
v -240 -416 0
v -256 -416 0
v -256 -400 0
v -240 -400 0
v -224 -416 0
v -240 -416 0
v -240 -400 0
v -224 -400 0
v -208 -416 0
v -224 -416 0
v -224 -400 0
v -208 -400 0
v -320 -432 0
v -336 -432 0
v -336 -416 0
v -320 -416 0
v -304 -432 0
v -320 -432 0
v -320 -416 0
v -304 -416 0
v -288 -432 0
v -304 -432 0
v -304 -416 0
v -288 -416 0
v -272 -432 0
v -288 -432 0
v -288 -416 0
v -272 -416 0
v -256 -432 0
v -272 -432 0
v -272 -416 0
v -256 -416 0
v -240 -432 0
v -256 -432 0
v -256 -416 0
v -240 -416 0
v -224 -432 0
v -240 -432 0
v -240 -416 0
v -224 -416 0
v -208 -432 0
v -224 -432 0
v -224 -416 0
v -208 -416 0
v -320 -448 0
v -336 -448 0
v -336 -432 0
v -320 -432 0
v -304 -448 0
v -320 -448 0
v -320 -432 0
v -304 -432 0
v -288 -448 0
v -304 -448 0
v -304 -432 0
v -288 -432 0
v -272 -448 0
v -288 -448 0
v -288 -432 0
v -272 -432 0
v -256 -448 0
v -272 -448 0
v -272 -432 0
v -256 -432 0
v -240 -448 0
v -256 -448 0
v -256 -432 0
v -240 -432 0
v -224 -448 0
v -240 -448 0
v -240 -432 0
v -224 -432 0
v -208 -448 0
v -224 -448 0
v -224 -432 0
v -208 -432 0
v -320 -464 0
v -336 -464 0
v -336 -448 0
v -320 -448 0
v -304 -464 0
v -320 -464 0
v -320 -448 0
v -304 -448 0
v -288 -464 0
v -304 -464 0
v -304 -448 0
v -288 -448 0
v -272 -464 0
v -288 -464 0
v -288 -448 0
v -272 -448 0
v -256 -464 0
v -272 -464 0
v -272 -448 0
v -256 -448 0
v -240 -464 0
v -256 -464 0
v -256 -448 0
v -240 -448 0
v -224 -464 0
v -240 -464 0
v -240 -448 0
v -224 -448 0
v -208 -464 0
v -224 -464 0
v -224 -448 0
v -208 -448 0
v -320 -480 0
v -336 -480 0
v -336 -464 0
v -320 -464 0
v -304 -480 0
v -320 -480 0
v -320 -464 0
v -304 -464 0
v -288 -480 0
v -304 -480 0
v -304 -464 0
v -288 -464 0
v -272 -480 0
v -288 -480 0
v -288 -464 0
v -272 -464 0
v -256 -480 0
v -272 -480 0
v -272 -464 0
v -256 -464 0
v -240 -480 0
v -256 -480 0
v -256 -464 0
v -240 -464 0
v -224 -480 0
v -240 -480 0
v -240 -464 0
v -224 -464 0
v -208 -480 0
v -224 -480 0
v -224 -464 0
v -208 -464 0
v -320 -496 0
v -336 -496 0
v -336 -480 0
v -320 -480 0
v -304 -496 0
v -320 -496 0
v -320 -480 0
v -304 -480 0
v -288 -496 0
v -304 -496 0
v -304 -480 0
v -288 -480 0
v -272 -496 0
v -288 -496 0
v -288 -480 0
v -272 -480 0
v -256 -496 0
v -272 -496 0
v -272 -480 0
v -256 -480 0
v -240 -496 0
v -256 -496 0
v -256 -480 0
v -240 -480 0
v -224 -496 0
v -240 -496 0
v -240 -480 0
v -224 -480 0
v -208 -496 0
v -224 -496 0
v -224 -480 0
v -208 -480 0
v -320 -512 0
v -336 -512 0
v -336 -496 0
v -320 -496 0
v -304 -512 0
v -320 -512 0
v -320 -496 0
v -304 -496 0
v -288 -512 0
v -304 -512 0
v -304 -496 0
v -288 -496 0
v -272 -512 0
v -288 -512 0
v -288 -496 0
v -272 -496 0
v -256 -512 0
v -272 -512 0
v -272 -496 0
v -256 -496 0
v -240 -512 0
v -256 -512 0
v -256 -496 0
v -240 -496 0
v -224 -512 0
v -240 -512 0
v -240 -496 0
v -224 -496 0
v -208 -512 0
v -224 -512 0
v -224 -496 0
v -208 -496 0
v -320 -528 0
v -336 -528 0
v -336 -512 0
v -320 -512 0
v -304 -528 0
v -320 -528 0
v -320 -512 0
v -304 -512 0
v -288 -528 0
v -304 -528 0
v -304 -512 0
v -288 -512 0
v -272 -528 0
v -288 -528 0
v -288 -512 0
v -272 -512 0
v -256 -528 0
v -272 -528 0
v -272 -512 0
v -256 -512 0
v -240 -528 0
v -256 -528 0
v -256 -512 0
v -240 -512 0
v -224 -528 0
v -240 -528 0
v -240 -512 0
v -224 -512 0
v -208 -528 0
v -224 -528 0
v -224 -512 0
v -208 -512 0
v -320 -544 0
v -336 -544 0
v -336 -528 0
v -320 -528 0
v -304 -544 0
v -320 -544 0
v -320 -528 0
v -304 -528 0
v -288 -544 0
v -304 -544 0
v -304 -528 0
v -288 -528 0
v -272 -544 0
v -288 -544 0
v -288 -528 0
v -272 -528 0
v -256 -544 0
v -272 -544 0
v -272 -528 0
v -256 -528 0
v -240 -544 0
v -256 -544 0
v -256 -528 0
v -240 -528 0
v -224 -544 0
v -240 -544 0
v -240 -528 0
v -224 -528 0
v -208 -544 0
v -224 -544 0
v -224 -528 0
v -208 -528 0

# Texture cooridinates (Count = 36)
vt 0.5795454 0.2908745
vt 0.5960744 0.2908745
vt 0.5960744 0.3212928
vt 0.5795454 0.3212928
vt 0.5619835 0.2908745
vt 0.5785124 0.2908745
vt 0.5785124 0.3212928
vt 0.5619835 0.3212928
vt 0.5444215 0.2908745
vt 0.5609504 0.2908745
vt 0.5609504 0.3212928
vt 0.5444215 0.3212928
vt 0.5795454 0.2585551
vt 0.5960744 0.2585551
vt 0.5960744 0.2889734
vt 0.5795454 0.2889734
vt 0.5619835 0.2585551
vt 0.5785124 0.2585551
vt 0.5785124 0.2889734
vt 0.5619835 0.2889734
vt 0.5444215 0.2585551
vt 0.5609504 0.2585551
vt 0.5609504 0.2889734
vt 0.5444215 0.2889734
vt 0.5795454 0.2262357
vt 0.5960744 0.2262357
vt 0.5960744 0.256654
vt 0.5795454 0.256654
vt 0.5619835 0.2262357
vt 0.5785124 0.2262357
vt 0.5785124 0.256654
vt 0.5619835 0.256654
vt 0.5444215 0.2262357
vt 0.5609504 0.2262357
vt 0.5609504 0.256654
vt 0.5444215 0.256654

# Normal
vn 0 0 -1

# Mesh description
g level-2_mesh_0007

# Faces
f 1/1/1 2/2/1 3/3/1 4/4/1
f 5/5/1 6/6/1 7/7/1 8/8/1
f 9/5/1 10/6/1 11/7/1 12/8/1
f 13/5/1 14/6/1 15/7/1 16/8/1
f 17/5/1 18/6/1 19/7/1 20/8/1
f 21/5/1 22/6/1 23/7/1 24/8/1
f 25/5/1 26/6/1 27/7/1 28/8/1
f 29/9/1 30/10/1 31/11/1 32/12/1
f 33/13/1 34/14/1 35/15/1 36/16/1
f 37/17/1 38/18/1 39/19/1 40/20/1
f 41/17/1 42/18/1 43/19/1 44/20/1
f 45/17/1 46/18/1 47/19/1 48/20/1
f 49/17/1 50/18/1 51/19/1 52/20/1
f 53/17/1 54/18/1 55/19/1 56/20/1
f 57/17/1 58/18/1 59/19/1 60/20/1
f 61/21/1 62/22/1 63/23/1 64/24/1
f 65/13/1 66/14/1 67/15/1 68/16/1
f 69/17/1 70/18/1 71/19/1 72/20/1
f 73/17/1 74/18/1 75/19/1 76/20/1
f 77/17/1 78/18/1 79/19/1 80/20/1
f 81/17/1 82/18/1 83/19/1 84/20/1
f 85/17/1 86/18/1 87/19/1 88/20/1
f 89/17/1 90/18/1 91/19/1 92/20/1
f 93/21/1 94/22/1 95/23/1 96/24/1
f 97/13/1 98/14/1 99/15/1 100/16/1
f 101/17/1 102/18/1 103/19/1 104/20/1
f 105/17/1 106/18/1 107/19/1 108/20/1
f 109/17/1 110/18/1 111/19/1 112/20/1
f 113/17/1 114/18/1 115/19/1 116/20/1
f 117/17/1 118/18/1 119/19/1 120/20/1
f 121/17/1 122/18/1 123/19/1 124/20/1
f 125/21/1 126/22/1 127/23/1 128/24/1
f 129/13/1 130/14/1 131/15/1 132/16/1
f 133/17/1 134/18/1 135/19/1 136/20/1
f 137/17/1 138/18/1 139/19/1 140/20/1
f 141/17/1 142/18/1 143/19/1 144/20/1
f 145/17/1 146/18/1 147/19/1 148/20/1
f 149/17/1 150/18/1 151/19/1 152/20/1
f 153/17/1 154/18/1 155/19/1 156/20/1
f 157/21/1 158/22/1 159/23/1 160/24/1
f 161/13/1 162/14/1 163/15/1 164/16/1
f 165/17/1 166/18/1 167/19/1 168/20/1
f 169/17/1 170/18/1 171/19/1 172/20/1
f 173/17/1 174/18/1 175/19/1 176/20/1
f 177/17/1 178/18/1 179/19/1 180/20/1
f 181/17/1 182/18/1 183/19/1 184/20/1
f 185/17/1 186/18/1 187/19/1 188/20/1
f 189/21/1 190/22/1 191/23/1 192/24/1
f 193/13/1 194/14/1 195/15/1 196/16/1
f 197/17/1 198/18/1 199/19/1 200/20/1
f 201/17/1 202/18/1 203/19/1 204/20/1
f 205/17/1 206/18/1 207/19/1 208/20/1
f 209/17/1 210/18/1 211/19/1 212/20/1
f 213/17/1 214/18/1 215/19/1 216/20/1
f 217/17/1 218/18/1 219/19/1 220/20/1
f 221/21/1 222/22/1 223/23/1 224/24/1
f 225/13/1 226/14/1 227/15/1 228/16/1
f 229/17/1 230/18/1 231/19/1 232/20/1
f 233/17/1 234/18/1 235/19/1 236/20/1
f 237/17/1 238/18/1 239/19/1 240/20/1
f 241/17/1 242/18/1 243/19/1 244/20/1
f 245/17/1 246/18/1 247/19/1 248/20/1
f 249/17/1 250/18/1 251/19/1 252/20/1
f 253/21/1 254/22/1 255/23/1 256/24/1
f 257/13/1 258/14/1 259/15/1 260/16/1
f 261/17/1 262/18/1 263/19/1 264/20/1
f 265/17/1 266/18/1 267/19/1 268/20/1
f 269/17/1 270/18/1 271/19/1 272/20/1
f 273/17/1 274/18/1 275/19/1 276/20/1
f 277/17/1 278/18/1 279/19/1 280/20/1
f 281/17/1 282/18/1 283/19/1 284/20/1
f 285/21/1 286/22/1 287/23/1 288/24/1
f 289/25/1 290/26/1 291/27/1 292/28/1
f 293/29/1 294/30/1 295/31/1 296/32/1
f 297/29/1 298/30/1 299/31/1 300/32/1
f 301/29/1 302/30/1 303/31/1 304/32/1
f 305/29/1 306/30/1 307/31/1 308/32/1
f 309/29/1 310/30/1 311/31/1 312/32/1
f 313/29/1 314/30/1 315/31/1 316/32/1
f 317/33/1 318/34/1 319/35/1 320/36/1

