# Tiled2Unity generated file. Do not modify by hand.
# Wavefront file for 'level-2_mesh_0017.obj'

# Vertices (Count = 116)
v -352 -160 0
v -368 -160 0
v -368 -144 0
v -352 -144 0
v -768 -192 0
v -784 -192 0
v -784 -176 0
v -768 -176 0
v -528 -192 0
v -544 -192 0
v -544 -176 0
v -528 -176 0
v -720 -288 0
v -736 -288 0
v -736 -272 0
v -720 -272 0
v -544 -288 0
v -560 -288 0
v -560 -272 0
v -544 -272 0
v -1008 -496 0
v -1024 -496 0
v -1024 -480 0
v -1008 -480 0
v -992 -496 0
v -1008 -496 0
v -1008 -480 0
v -992 -480 0
v -976 -496 0
v -992 -496 0
v -992 -480 0
v -976 -480 0
v -976 -512 0
v -992 -512 0
v -992 -496 0
v -976 -496 0
v -960 -512 0
v -976 -512 0
v -976 -496 0
v -960 -496 0
v -944 -512 0
v -960 -512 0
v -960 -496 0
v -944 -496 0
v -976 -528 0
v -992 -528 0
v -992 -512 0
v -976 -512 0
v -960 -528 0
v -976 -528 0
v -976 -512 0
v -960 -512 0
v -944 -528 0
v -960 -528 0
v -960 -512 0
v -944 -512 0
v -384 -608 0
v -400 -608 0
v -400 -592 0
v -384 -592 0
v -240 -608 0
v -256 -608 0
v -256 -592 0
v -240 -592 0
v -384 -624 0
v -400 -624 0
v -400 -608 0
v -384 -608 0
v -240 -624 0
v -256 -624 0
v -256 -608 0
v -240 -608 0
v -384 -640 0
v -400 -640 0
v -400 -624 0
v -384 -624 0
v -240 -640 0
v -256 -640 0
v -256 -624 0
v -240 -624 0
v -384 -656 0
v -400 -656 0
v -400 -640 0
v -384 -640 0
v -240 -656 0
v -256 -656 0
v -256 -640 0
v -240 -640 0
v -384 -672 0
v -400 -672 0
v -400 -656 0
v -384 -656 0
v -240 -672 0
v -256 -672 0
v -256 -656 0
v -240 -656 0
v -320 -688 0
v -336 -688 0
v -336 -672 0
v -320 -672 0
v -304 -688 0
v -320 -688 0
v -320 -672 0
v -304 -672 0
v -288 -688 0
v -304 -688 0
v -304 -672 0
v -288 -672 0
v -272 -688 0
v -288 -688 0
v -288 -672 0
v -272 -672 0
v -272 -704 0
v -288 -704 0
v -288 -688 0
v -272 -688 0

# Texture cooridinates (Count = 20)
vt 0.2634298 0.7110266
vt 0.2799587 0.7110266
vt 0.2799587 0.7414448
vt 0.2634298 0.7414448
vt 0.08780992 0.4201521
vt 0.1043388 0.4201521
vt 0.1043388 0.4505703
vt 0.08780992 0.4505703
vt 0.1580579 0.5494297
vt 0.1745868 0.5494297
vt 0.1745868 0.5798479
vt 0.1580579 0.5798479
vt 0.2283058 0.6787072
vt 0.2448347 0.6787072
vt 0.2448347 0.7091255
vt 0.2283058 0.7091255
vt 0.1404959 0.3878327
vt 0.1570248 0.3878327
vt 0.1570248 0.418251
vt 0.1404959 0.418251

# Normal
vn 0 0 -1

# Mesh description
g level-2_mesh_0017

# Faces
f 1/1/1 2/2/1 3/3/1 4/4/1
f 5/1/1 6/2/1 7/3/1 8/4/1
f 9/1/1 10/2/1 11/3/1 12/4/1
f 13/5/1 14/6/1 15/7/1 16/8/1
f 17/9/1 18/10/1 19/11/1 20/12/1
f 21/13/1 22/14/1 23/15/1 24/16/1
f 25/13/1 26/14/1 27/15/1 28/16/1
f 29/13/1 30/14/1 31/15/1 32/16/1
f 33/17/1 34/18/1 35/19/1 36/20/1
f 37/17/1 38/18/1 39/19/1 40/20/1
f 41/17/1 42/18/1 43/19/1 44/20/1
f 45/17/1 46/18/1 47/19/1 48/20/1
f 49/17/1 50/18/1 51/19/1 52/20/1
f 53/17/1 54/18/1 55/19/1 56/20/1
f 57/13/1 58/14/1 59/15/1 60/16/1
f 61/13/1 62/14/1 63/15/1 64/16/1
f 65/13/1 66/14/1 67/15/1 68/16/1
f 69/13/1 70/14/1 71/15/1 72/16/1
f 73/13/1 74/14/1 75/15/1 76/16/1
f 77/13/1 78/14/1 79/15/1 80/16/1
f 81/13/1 82/14/1 83/15/1 84/16/1
f 85/13/1 86/14/1 87/15/1 88/16/1
f 89/13/1 90/14/1 91/15/1 92/16/1
f 93/13/1 94/14/1 95/15/1 96/16/1
f 97/13/1 98/14/1 99/15/1 100/16/1
f 101/13/1 102/14/1 103/15/1 104/16/1
f 105/13/1 106/14/1 107/15/1 108/16/1
f 109/9/1 110/10/1 111/11/1 112/12/1
f 113/5/1 114/6/1 115/7/1 116/8/1

